<?xml version="1.0" standalone="no"?>
<!DOCTYPE svg PUBLIC "-//W3C//DTD SVG 20010904//EN"
        "http://www.w3.org/TR/2001/REC-SVG-20010904/DTD/svg10.dtd">
<svg version="1.0" xmlns="http://www.w3.org/2000/svg"
     width="128.000000pt" height="128.000000pt" viewBox="0 0 128.000000 128.000000"
     preserveAspectRatio="xMidYMid meet">

    <g transform="translate(0.000000,128.000000) scale(0.100000,-0.100000)"
       fill="#317AC6" stroke="none">
        <path d="M95 1265 c-48 -17 -71 -43 -85 -96 -7 -25 -10 -216 -8 -551 3 -570 2
-558 71 -595 29 -17 74 -18 567 -18 493 0 538 1 567 18 70 38 68 22 68 617 0
493 -1 538 -18 567 -37 69 -24 68 -602 70 -431 2 -527 0 -560 -12z m619 -641
c13 -13 16 -45 16 -198 0 -238 -1 -242 -52 -250 -23 -4 -42 -5 -44 -3 -8 8 -8
279 -1 360 7 64 12 87 23 87 8 0 14 5 14 10 0 15 27 12 44 -6z m244 9 c41 -5
52 -9 50 -22 -2 -9 3 -21 12 -28 26 -20 -4 -36 -84 -42 -41 -4 -78 -10 -83
-15 -4 -4 -8 -62 -8 -127 0 -138 1 -139 83 -139 l52 0 0 39 c0 35 -3 39 -31
45 -17 3 -44 6 -60 6 -24 0 -29 5 -35 36 -3 19 -2 40 3 45 5 5 54 8 109 7 l99
-3 3 -132 3 -133 -113 0 c-94 0 -118 3 -145 20 -54 32 -63 63 -63 210 0 153
11 190 69 220 40 21 60 23 139 13z"/>
    </g>
</svg>
